<path d="M1694.3 51.744L1662.55 147H1642.56L1611 51.744H1629.42L1652.55 117.992L1675.68 51.744H1694.3ZM1789.79 139.16C1787.57 141.251 1784.89 143.015 1781.75 144.452C1779.01 145.889 1775.61 147.131 1771.56 148.176C1767.51 149.221 1762.74 149.744 1757.25 149.744C1751.77 149.744 1746.21 149.025 1740.59 147.588C1734.98 146.151 1729.81 143.537 1725.11 139.748C1720.41 135.959 1716.42 130.863 1713.15 124.46C1709.89 117.927 1707.8 109.564 1706.88 99.372V51.744H1724.52V99.372C1724.91 105.513 1726.29 111.001 1728.64 115.836C1729.68 117.927 1730.99 119.952 1732.56 121.912C1734.13 123.872 1736.02 125.636 1738.24 127.204C1740.59 128.641 1743.27 129.817 1746.28 130.732C1749.41 131.647 1753.07 132.104 1757.25 132.104C1761.3 132.104 1764.83 131.647 1767.84 130.732C1770.97 129.817 1773.65 128.641 1775.87 127.204C1778.23 125.636 1780.19 123.872 1781.75 121.912C1783.32 119.952 1784.63 117.927 1785.67 115.836C1788.03 111.001 1789.4 105.513 1789.79 99.372V51.744H1807.43V147H1789.79V139.16ZM1913.11 117.012C1913.11 121.585 1911.87 125.832 1909.39 129.752C1906.91 133.672 1903.51 137.135 1899.2 140.14C1895.02 143.145 1890.05 145.497 1884.3 147.196C1878.68 148.895 1872.61 149.744 1866.07 149.744C1859.15 149.744 1852.61 148.437 1846.47 145.824C1840.33 143.211 1834.97 139.617 1830.4 135.044C1825.83 130.471 1822.23 125.113 1819.62 118.972C1817.01 112.831 1815.7 106.297 1815.7 99.372C1815.7 92.4467 1817.01 85.9133 1819.62 79.772C1822.23 73.6307 1825.83 68.3387 1830.4 63.896C1834.97 59.3227 1840.33 55.7293 1846.47 53.116C1852.61 50.5027 1859.15 49.196 1866.07 49.196C1872.87 49.196 1879.53 50.5027 1886.06 53.116C1892.6 55.7293 1898.28 59.5187 1903.12 64.484C1907.95 69.4493 1911.54 75.656 1913.9 83.104C1916.38 90.4213 1916.97 98.784 1915.66 108.192H1834.52C1834.52 110.544 1835.37 113.092 1837.06 115.836C1838.76 118.58 1840.98 121.193 1843.73 123.676C1846.6 126.028 1849.94 128.053 1853.72 129.752C1857.64 131.32 1861.76 132.104 1866.07 132.104C1869.86 132.104 1873.39 131.712 1876.66 130.928C1880.05 130.144 1882.99 129.099 1885.48 127.792C1887.96 126.355 1889.92 124.721 1891.36 122.892C1892.79 121.063 1893.51 119.103 1893.51 117.012H1913.11ZM1897.43 90.552C1897.04 88.4613 1896 86.1093 1894.3 83.496C1892.6 80.752 1890.38 78.1387 1887.63 75.656C1884.89 73.1733 1881.69 71.0827 1878.03 69.384C1874.37 67.6853 1870.38 66.836 1866.07 66.836C1861.76 66.836 1857.71 67.6853 1853.92 69.384C1850.26 71.0827 1847.06 73.1733 1844.32 75.656C1841.57 78.1387 1839.35 80.752 1837.65 83.496C1835.95 86.1093 1834.91 88.4613 1834.52 90.552H1897.43Z" fill="#080808"/>
<svg width="100" height="100" viewBox="0 0 100 100" fill="none" xmlns="http://www.w3.org/2000/svg">
    <rect width="100" height="100" rx="20" fill="#1B4332"/>
    <circle cx="50" cy="38" r="18" fill="#52B788"/>
    <path d="M22 82 C22 62 78 62 78 82 Z" fill="#52B788"/>
</svg>